<?xml version="1.0" encoding="utf-8"?>
<!-- Generator: Adobe Illustrator 16.0.0, SVG Export Plug-In . SVG Version: 6.00 Build 0)  -->
<!DOCTYPE svg PUBLIC "-//W3C//DTD SVG 1.1//EN" "http://www.w3.org/Graphics/SVG/1.1/DTD/svg11.dtd">
<svg version="1.1" xmlns="http://www.w3.org/2000/svg" xmlns:xlink="http://www.w3.org/1999/xlink" x="0px" y="0px" width="706px"
	 height="174px" viewBox="0 0 706 174" enable-background="new 0 0 706 174" xml:space="preserve">
<g id="szöveg">
	<g>
		<path fill="#FFFFFF" d="M279.316,47.693c-3.287-14.792-19.253-21.132-33.577-20.896c-11.036,0.234-23.245,3.99-29.82,12.444
			c-3.287,4.226-4.461,9.625-3.992,15.263c1.174,16.905,19.724,19.019,37.334,20.661c22.541,2.818,50.482,8.689,56.823,34.985
			c0.706,3.522,1.173,7.514,1.173,10.804c0,31.696-31.463,50.01-61.047,50.01c-25.36,0-56.118-15.028-59.171-44.377l-0.234-4.46
			l23.95-0.468l0.234,3.519v-0.937c1.644,15.259,20.192,23.243,35.456,23.243c17.609,0,36.865-9.862,36.865-26.767
			c0-1.645-0.236-3.523-0.705-5.636c-2.817-12.448-19.724-14.558-36.16-16.202c-25.595-2.584-55.65-8.219-58.231-42.499v0.235
			c-0.94-11.035,1.878-22.071,8.922-31.229c11.035-14.322,30.76-21.836,49.779-21.836c25.358,0,51.656,13.149,55.881,43.203
			L279.316,47.693z"/>
		<path fill="#FFFFFF" d="M329.564,120.246V5.43h23.949v115.054c0,18.076,19.49,27.001,36.864,27.001
			c17.14,0,36.629-9.156,36.629-27.238V5.43h23.95v115.054c0,33.342-32.402,50.715-60.579,50.715
			C361.498,171.198,329.564,153.825,329.564,120.246z"/>
		<path fill="#FFFFFF" d="M509.19,86.203h27.707c19.956,0,29.813-14.325,29.813-28.647c0-14.089-9.857-28.413-29.813-28.413h-36.395
			v140.408h-23.482V5.194h59.877c35.686,0,53.532,26.298,53.532,52.362c0,23.246-14.323,45.319-42.497,50.249l51.892,61.747h-30.763
			L509.19,97.469V86.203z"/>
		<path fill="#FFFFFF" d="M632.693,169.552h-23.719V5.43h97.916v23.714h-74.197v46.258h65.745v23.949h-65.745V169.552z"/>
	</g>
</g>
<g id="logo" enable-background="new    ">
	<g>
		<path fill-rule="evenodd" clip-rule="evenodd" fill="#87729D" d="M43.054,30.039h80.978c9.453,0,17.117,7.664,17.117,17.118
			v80.977c0,9.454-7.664,17.117-17.117,17.117H43.054c-9.454,0-17.116-7.663-17.116-17.117V47.157
			C25.938,37.703,33.601,30.039,43.054,30.039z"/>
	</g>
	<path fill-rule="evenodd" clip-rule="evenodd" fill="#3B254E" d="M15.52,66.954c20.683-9.146,32.122-13.495,53.149-12.169
		c-23.098,37.997,6.083,77.735,73.762,67.8c7.865,31.461-38.328,41.007-74.258,34.273C15.93,147.067,11.538,126.396,15.52,66.954z"
		/>
	<path fill-rule="evenodd" clip-rule="evenodd" fill="#FFFFFF" d="M22.227,67.449c34.018-17.23,77.601-7.106,97.355,25.333
		c-9.385-42.363-53.729-65.387-96.114-69.042C19.963,38.145,19.403,52.883,22.227,67.449z"/>
	<g id="Shape_1">
		<g>
			<path fill-rule="evenodd" clip-rule="evenodd" fill="#FFFFFF" d="M141.587,5.164H25.985C12.49,5.164,1.55,16.104,1.55,29.601
				v115.603c0,13.495,10.94,24.437,24.436,24.437h115.602c13.497,0,24.437-10.941,24.437-24.437V29.601
				C166.024,16.104,155.084,5.164,141.587,5.164z M141.344,127.591c0,9.602-7.784,17.386-17.385,17.386H43.592
				c-9.602,0-17.385-7.784-17.385-17.386V47.225c0-9.603,7.783-17.386,17.385-17.386h80.366c9.602,0,17.385,7.783,17.385,17.386
				V127.591z"/>
		</g>
	</g>
</g>
</svg>
