<?xml version="1.0" encoding="utf-8"?>
<!-- Generator: Adobe Illustrator 16.0.0, SVG Export Plug-In . SVG Version: 6.00 Build 0)  -->
<!DOCTYPE svg PUBLIC "-//W3C//DTD SVG 1.1//EN" "http://www.w3.org/Graphics/SVG/1.1/DTD/svg11.dtd">
<svg version="1.1" xmlns="http://www.w3.org/2000/svg" xmlns:xlink="http://www.w3.org/1999/xlink" x="0px" y="0px" width="706px"
	 height="272px" viewBox="0 0 706 272" enable-background="new 0 0 706 272" xml:space="preserve">
<g id="szöveg">
	<g>
		<path fill="#565656" d="M292.233,103.69c-2.646-11.912-15.504-17.018-27.039-16.827c-8.887,0.188-18.718,3.213-24.014,10.021
			c-2.647,3.403-3.592,7.752-3.214,12.291c0.945,13.614,15.883,15.315,30.064,16.639c18.152,2.27,40.653,6.997,45.759,28.173
			c0.568,2.838,0.945,6.051,0.945,8.7c0,25.525-25.337,40.273-49.161,40.273c-20.422,0-45.192-12.103-47.65-35.736l-0.188-3.593
			l19.286-0.377l0.189,2.834v-0.755c1.324,12.289,16.261,18.718,28.552,18.718c14.181,0,29.687-7.941,29.687-21.555
			c0-1.324-0.19-2.837-0.568-4.538c-2.269-10.023-15.884-11.723-29.119-13.047c-20.611-2.081-44.814-6.619-46.893-34.225v0.189
			c-0.756-8.887,1.513-17.773,7.185-25.148c8.886-11.534,24.771-17.584,40.086-17.584c20.421,0,41.599,10.589,45.001,34.791
			L292.233,103.69z"/>
		<path fill="#565656" d="M332.698,162.116V69.655h19.286v92.652c0,14.557,15.695,21.743,29.687,21.743
			c13.803,0,29.497-7.373,29.497-21.935V69.655h19.287v92.652c0,26.851-26.094,40.841-48.784,40.841
			C358.414,203.148,332.698,189.158,332.698,162.116z"/>
		<path fill="#565656" d="M477.35,134.702h22.313c16.07,0,24.01-11.536,24.01-23.07c0-11.345-7.939-22.88-24.01-22.88h-29.309
			v113.07h-18.91V69.466h48.219c28.737,0,43.109,21.178,43.109,42.167c0,18.72-11.534,36.496-34.223,40.465l41.787,49.725h-24.771
			l-48.215-58.048V134.702z"/>
		<path fill="#565656" d="M576.806,201.822h-19.1V69.655h78.851v19.097h-59.751v37.251h52.944v19.286h-52.944V201.822z"/>
	</g>
</g>
<g id="logo" enable-background="new    ">
	<g>
		<path fill-rule="evenodd" clip-rule="evenodd" fill="#393839" d="M101.973,89.474h65.21c7.613,0,13.784,6.172,13.784,13.785v65.21
			c0,7.613-6.171,13.784-13.784,13.784h-65.21c-7.613,0-13.784-6.171-13.784-13.784v-65.21
			C88.189,95.646,94.36,89.474,101.973,89.474z"/>
	</g>
	<path fill-rule="evenodd" clip-rule="evenodd" fill="#231F20" d="M79.8,119.2c16.655-7.365,25.867-10.867,42.8-9.8
		C104,140,127.5,172,182,164c6.333,25.334-30.864,33.021-59.8,27.6C80.129,183.716,76.593,167.068,79.8,119.2z"/>
	<path fill-rule="evenodd" clip-rule="evenodd" fill="#58595B" d="M85.2,119.6c27.395-13.875,62.492-5.723,78.4,20.4
		c-7.558-34.115-43.267-52.656-77.4-55.6C83.378,96.001,82.927,107.87,85.2,119.6z"/>
	<g id="Shape_1">
		<g>
			<path fill-rule="evenodd" clip-rule="evenodd" fill="#565656" d="M181.322,69.441H88.228c-10.868,0-19.678,8.811-19.678,19.679
				v93.094c0,10.868,8.81,19.679,19.678,19.679h93.094c10.868,0,19.678-8.811,19.678-19.679V89.12
				C201,78.252,192.19,69.441,181.322,69.441z M181.125,168.031c0,7.732-6.268,14-14,14h-64.719c-7.732,0-14-6.268-14-14v-64.719
				c0-7.732,6.268-14,14-14h64.719c7.732,0,14,6.268,14,14V168.031z"/>
		</g>
	</g>
</g>
</svg>
